<mxfile host="app.diagrams.net" modified="2023-08-24T10:44:20.400Z" agent="Mozilla/5.0 (Windows NT 10.0; Win64; x64) AppleWebKit/537.36 (KHTML, like Gecko) Chrome/116.0.0.0 Safari/537.36 Edg/116.0.1938.54" etag="Sy4E26SEnA-MMqFFJEX0" version="21.6.8" type="device">
  <diagram id="C5RBs43oDa-KdzZeNtuy" name="Page-1">
    <mxGraphModel dx="1235" dy="684" grid="1" gridSize="10" guides="1" tooltips="1" connect="1" arrows="1" fold="1" page="1" pageScale="1" pageWidth="827" pageHeight="1169" math="0" shadow="0">
      <root>
        <mxCell id="WIyWlLk6GJQsqaUBKTNV-0" />
        <mxCell id="WIyWlLk6GJQsqaUBKTNV-1" parent="WIyWlLk6GJQsqaUBKTNV-0" />
        <mxCell id="WIyWlLk6GJQsqaUBKTNV-2" value="" style="rounded=0;html=1;jettySize=auto;orthogonalLoop=1;fontSize=11;endArrow=block;endFill=0;endSize=8;strokeWidth=1;shadow=0;labelBackgroundColor=none;edgeStyle=orthogonalEdgeStyle;" parent="WIyWlLk6GJQsqaUBKTNV-1" source="WIyWlLk6GJQsqaUBKTNV-3" target="WIyWlLk6GJQsqaUBKTNV-6" edge="1">
          <mxGeometry relative="1" as="geometry" />
        </mxCell>
        <mxCell id="WIyWlLk6GJQsqaUBKTNV-3" value="User Sends Message" style="rounded=1;whiteSpace=wrap;html=1;fontSize=12;glass=0;strokeWidth=1;shadow=0;" parent="WIyWlLk6GJQsqaUBKTNV-1" vertex="1">
          <mxGeometry x="150" y="178" width="140" height="50" as="geometry" />
        </mxCell>
        <mxCell id="WIyWlLk6GJQsqaUBKTNV-5" value="Yes" style="edgeStyle=orthogonalEdgeStyle;rounded=0;html=1;jettySize=auto;orthogonalLoop=1;fontSize=11;endArrow=block;endFill=0;endSize=8;strokeWidth=1;shadow=0;labelBackgroundColor=none;" parent="WIyWlLk6GJQsqaUBKTNV-1" source="WIyWlLk6GJQsqaUBKTNV-6" target="WIyWlLk6GJQsqaUBKTNV-7" edge="1">
          <mxGeometry y="10" relative="1" as="geometry">
            <mxPoint as="offset" />
          </mxGeometry>
        </mxCell>
        <mxCell id="WIyWlLk6GJQsqaUBKTNV-6" value="Upload File?" style="rhombus;whiteSpace=wrap;html=1;shadow=0;fontFamily=Helvetica;fontSize=12;align=center;strokeWidth=1;spacing=6;spacingTop=-4;" parent="WIyWlLk6GJQsqaUBKTNV-1" vertex="1">
          <mxGeometry x="170" y="278" width="100" height="80" as="geometry" />
        </mxCell>
        <mxCell id="WIyWlLk6GJQsqaUBKTNV-7" value="Upload File To&lt;br&gt;&amp;nbsp;Azure Blob Storage" style="rounded=1;whiteSpace=wrap;html=1;fontSize=12;glass=0;strokeWidth=1;shadow=0;fillColor=#dae8fc;strokeColor=#6c8ebf;" parent="WIyWlLk6GJQsqaUBKTNV-1" vertex="1">
          <mxGeometry x="330" y="293" width="160" height="50" as="geometry" />
        </mxCell>
        <mxCell id="WIyWlLk6GJQsqaUBKTNV-8" value="No" style="rounded=0;html=1;jettySize=auto;orthogonalLoop=1;fontSize=11;endArrow=block;endFill=0;endSize=8;strokeWidth=1;shadow=0;labelBackgroundColor=none;edgeStyle=orthogonalEdgeStyle;" parent="WIyWlLk6GJQsqaUBKTNV-1" source="iBaxZ7XfmE4v1eV0UQCF-26" target="FnrRYVqBn6flf1UeQhr2-4" edge="1">
          <mxGeometry x="0.3333" y="20" relative="1" as="geometry">
            <mxPoint as="offset" />
            <mxPoint x="220" y="524" as="targetPoint" />
          </mxGeometry>
        </mxCell>
        <mxCell id="iBaxZ7XfmE4v1eV0UQCF-0" value="" style="edgeStyle=orthogonalEdgeStyle;rounded=0;html=1;jettySize=auto;orthogonalLoop=1;fontSize=11;endArrow=block;endFill=0;endSize=8;strokeWidth=1;shadow=0;labelBackgroundColor=none;" parent="WIyWlLk6GJQsqaUBKTNV-1" source="WIyWlLk6GJQsqaUBKTNV-7" target="iBaxZ7XfmE4v1eV0UQCF-1" edge="1">
          <mxGeometry y="10" relative="1" as="geometry">
            <mxPoint as="offset" />
            <mxPoint x="470" y="318" as="sourcePoint" />
          </mxGeometry>
        </mxCell>
        <mxCell id="iBaxZ7XfmE4v1eV0UQCF-1" value="Run Indexer&lt;br&gt;(Azure Cognitive Services)" style="rounded=1;whiteSpace=wrap;html=1;fontSize=12;glass=0;strokeWidth=1;shadow=0;fillColor=#dae8fc;strokeColor=#6c8ebf;" parent="WIyWlLk6GJQsqaUBKTNV-1" vertex="1">
          <mxGeometry x="580" y="293.5" width="175" height="50" as="geometry" />
        </mxCell>
        <mxCell id="iBaxZ7XfmE4v1eV0UQCF-4" value="" style="edgeStyle=orthogonalEdgeStyle;rounded=0;html=1;jettySize=auto;orthogonalLoop=1;fontSize=11;endArrow=block;endFill=0;endSize=8;strokeWidth=1;shadow=0;labelBackgroundColor=none;" parent="WIyWlLk6GJQsqaUBKTNV-1" source="iBaxZ7XfmE4v1eV0UQCF-1" target="iBaxZ7XfmE4v1eV0UQCF-5" edge="1">
          <mxGeometry y="10" relative="1" as="geometry">
            <mxPoint as="offset" />
            <mxPoint x="670" y="318" as="sourcePoint" />
          </mxGeometry>
        </mxCell>
        <mxCell id="iBaxZ7XfmE4v1eV0UQCF-5" value="Run Extraction Service&lt;br&gt;(Power Automate &amp;amp; Azure Form Recognizer" style="rounded=1;whiteSpace=wrap;html=1;fontSize=12;glass=0;strokeWidth=1;shadow=0;fillColor=#dae8fc;strokeColor=#6c8ebf;" parent="WIyWlLk6GJQsqaUBKTNV-1" vertex="1">
          <mxGeometry x="873" y="292" width="220" height="55" as="geometry" />
        </mxCell>
        <mxCell id="iBaxZ7XfmE4v1eV0UQCF-11" value="Tell User There Is No Such Data" style="rounded=1;whiteSpace=wrap;html=1;fontSize=12;glass=0;strokeWidth=1;shadow=0;fillColor=#d5e8d4;strokeColor=#82b366;" parent="WIyWlLk6GJQsqaUBKTNV-1" vertex="1">
          <mxGeometry x="152.5" y="670" width="135" height="50" as="geometry" />
        </mxCell>
        <mxCell id="iBaxZ7XfmE4v1eV0UQCF-14" value="No" style="rounded=0;html=1;jettySize=auto;orthogonalLoop=1;fontSize=11;endArrow=block;endFill=0;endSize=8;strokeWidth=1;shadow=0;labelBackgroundColor=none;edgeStyle=orthogonalEdgeStyle;" parent="WIyWlLk6GJQsqaUBKTNV-1" source="FnrRYVqBn6flf1UeQhr2-4" target="iBaxZ7XfmE4v1eV0UQCF-11" edge="1">
          <mxGeometry x="0.3333" y="20" relative="1" as="geometry">
            <mxPoint as="offset" />
            <mxPoint x="897.5" y="455" as="sourcePoint" />
            <mxPoint x="872.5" y="495" as="targetPoint" />
          </mxGeometry>
        </mxCell>
        <mxCell id="iBaxZ7XfmE4v1eV0UQCF-15" value="Index Data&lt;br&gt;(Azure Cognitive Services)" style="rounded=1;whiteSpace=wrap;html=1;fontSize=12;glass=0;strokeWidth=1;shadow=0;fillColor=#dae8fc;strokeColor=#6c8ebf;" parent="WIyWlLk6GJQsqaUBKTNV-1" vertex="1">
          <mxGeometry x="898" y="570" width="170" height="55" as="geometry" />
        </mxCell>
        <mxCell id="iBaxZ7XfmE4v1eV0UQCF-16" value="" style="rounded=0;html=1;jettySize=auto;orthogonalLoop=1;fontSize=11;endArrow=block;endFill=0;endSize=8;strokeWidth=1;shadow=0;labelBackgroundColor=none;edgeStyle=orthogonalEdgeStyle;" parent="WIyWlLk6GJQsqaUBKTNV-1" source="iBaxZ7XfmE4v1eV0UQCF-5" target="iBaxZ7XfmE4v1eV0UQCF-15" edge="1">
          <mxGeometry x="0.3333" y="20" relative="1" as="geometry">
            <mxPoint as="offset" />
            <mxPoint x="1233" y="251" as="sourcePoint" />
            <mxPoint x="1208" y="296" as="targetPoint" />
          </mxGeometry>
        </mxCell>
        <mxCell id="iBaxZ7XfmE4v1eV0UQCF-18" value="Send Answer&lt;br&gt;To The User" style="rounded=1;whiteSpace=wrap;html=1;fontSize=12;glass=0;strokeWidth=1;shadow=0;" parent="WIyWlLk6GJQsqaUBKTNV-1" vertex="1">
          <mxGeometry x="160" y="770" width="120" height="40" as="geometry" />
        </mxCell>
        <mxCell id="iBaxZ7XfmE4v1eV0UQCF-19" value="" style="rounded=0;html=1;jettySize=auto;orthogonalLoop=1;fontSize=11;endArrow=block;endFill=0;endSize=8;strokeWidth=1;shadow=0;labelBackgroundColor=none;edgeStyle=orthogonalEdgeStyle;" parent="WIyWlLk6GJQsqaUBKTNV-1" source="iBaxZ7XfmE4v1eV0UQCF-11" target="iBaxZ7XfmE4v1eV0UQCF-18" edge="1">
          <mxGeometry x="0.3333" y="20" relative="1" as="geometry">
            <mxPoint as="offset" />
            <mxPoint x="220" y="720" as="sourcePoint" />
            <mxPoint x="290" y="790" as="targetPoint" />
          </mxGeometry>
        </mxCell>
        <mxCell id="iBaxZ7XfmE4v1eV0UQCF-21" value="" style="rounded=0;html=1;jettySize=auto;orthogonalLoop=1;fontSize=11;endArrow=block;endFill=0;endSize=8;strokeWidth=1;shadow=0;labelBackgroundColor=none;edgeStyle=orthogonalEdgeStyle;" parent="WIyWlLk6GJQsqaUBKTNV-1" source="FnrRYVqBn6flf1UeQhr2-5" target="iBaxZ7XfmE4v1eV0UQCF-18" edge="1">
          <mxGeometry x="0.3333" y="20" relative="1" as="geometry">
            <mxPoint as="offset" />
            <mxPoint x="1110" y="357.5" as="sourcePoint" />
            <mxPoint x="290" y="560" as="targetPoint" />
            <Array as="points">
              <mxPoint x="640" y="790" />
            </Array>
          </mxGeometry>
        </mxCell>
        <mxCell id="iBaxZ7XfmE4v1eV0UQCF-22" value="" style="rounded=0;html=1;jettySize=auto;orthogonalLoop=1;fontSize=11;endArrow=block;endFill=0;endSize=8;strokeWidth=1;shadow=0;labelBackgroundColor=none;edgeStyle=orthogonalEdgeStyle;" parent="WIyWlLk6GJQsqaUBKTNV-1" source="iBaxZ7XfmE4v1eV0UQCF-18" target="WIyWlLk6GJQsqaUBKTNV-3" edge="1">
          <mxGeometry x="0.3333" y="20" relative="1" as="geometry">
            <mxPoint as="offset" />
            <mxPoint x="55" y="520.0285714285714" as="sourcePoint" />
            <mxPoint x="115.02857142857135" y="90" as="targetPoint" />
            <Array as="points">
              <mxPoint x="115" y="790" />
              <mxPoint x="115" y="210" />
            </Array>
          </mxGeometry>
        </mxCell>
        <mxCell id="iBaxZ7XfmE4v1eV0UQCF-25" value="Yes" style="edgeStyle=orthogonalEdgeStyle;rounded=0;html=1;jettySize=auto;orthogonalLoop=1;fontSize=11;endArrow=block;endFill=0;endSize=8;strokeWidth=1;shadow=0;labelBackgroundColor=none;" parent="WIyWlLk6GJQsqaUBKTNV-1" source="iBaxZ7XfmE4v1eV0UQCF-26" target="iBaxZ7XfmE4v1eV0UQCF-27" edge="1">
          <mxGeometry y="10" relative="1" as="geometry">
            <mxPoint as="offset" />
            <mxPoint x="360" y="403" as="targetPoint" />
          </mxGeometry>
        </mxCell>
        <mxCell id="iBaxZ7XfmE4v1eV0UQCF-26" value="Can use Azure Open AI Functions?" style="rhombus;whiteSpace=wrap;html=1;shadow=0;fontFamily=Helvetica;fontSize=12;align=center;strokeWidth=1;spacing=6;spacingTop=-4;fillColor=#d5e8d4;strokeColor=#82b366;" parent="WIyWlLk6GJQsqaUBKTNV-1" vertex="1">
          <mxGeometry x="160" y="388" width="120" height="110" as="geometry" />
        </mxCell>
        <mxCell id="iBaxZ7XfmE4v1eV0UQCF-27" value="Is the function to create an image?" style="rhombus;whiteSpace=wrap;html=1;shadow=0;fontFamily=Helvetica;fontSize=12;align=center;strokeWidth=1;spacing=6;spacingTop=-4;fillColor=#d5e8d4;strokeColor=#82b366;" parent="WIyWlLk6GJQsqaUBKTNV-1" vertex="1">
          <mxGeometry x="340" y="383" width="120" height="120" as="geometry" />
        </mxCell>
        <mxCell id="iBaxZ7XfmE4v1eV0UQCF-28" value="Generate Image Based On Prompt&lt;br&gt;(Azure Open AI - Dall-E)" style="rounded=1;whiteSpace=wrap;html=1;fontSize=12;glass=0;strokeWidth=1;shadow=0;fillColor=#d5e8d4;strokeColor=#82b366;" parent="WIyWlLk6GJQsqaUBKTNV-1" vertex="1">
          <mxGeometry x="580" y="410.5" width="190" height="65" as="geometry" />
        </mxCell>
        <mxCell id="iBaxZ7XfmE4v1eV0UQCF-29" value="Yes" style="edgeStyle=orthogonalEdgeStyle;rounded=0;html=1;jettySize=auto;orthogonalLoop=1;fontSize=11;endArrow=block;endFill=0;endSize=8;strokeWidth=1;shadow=0;labelBackgroundColor=none;" parent="WIyWlLk6GJQsqaUBKTNV-1" source="iBaxZ7XfmE4v1eV0UQCF-27" target="iBaxZ7XfmE4v1eV0UQCF-28" edge="1">
          <mxGeometry y="10" relative="1" as="geometry">
            <mxPoint as="offset" />
            <mxPoint x="530" y="483" as="targetPoint" />
            <mxPoint x="440" y="483" as="sourcePoint" />
          </mxGeometry>
        </mxCell>
        <mxCell id="iBaxZ7XfmE4v1eV0UQCF-30" value="No" style="rounded=0;html=1;jettySize=auto;orthogonalLoop=1;fontSize=11;endArrow=block;endFill=0;endSize=8;strokeWidth=1;shadow=0;labelBackgroundColor=none;edgeStyle=orthogonalEdgeStyle;" parent="WIyWlLk6GJQsqaUBKTNV-1" source="iBaxZ7XfmE4v1eV0UQCF-27" target="iBaxZ7XfmE4v1eV0UQCF-31" edge="1">
          <mxGeometry x="-0.8182" y="20" relative="1" as="geometry">
            <mxPoint as="offset" />
            <mxPoint x="410" y="570" as="sourcePoint" />
            <mxPoint x="400" y="640" as="targetPoint" />
          </mxGeometry>
        </mxCell>
        <mxCell id="iBaxZ7XfmE4v1eV0UQCF-31" value="Run Desired Function" style="rounded=1;whiteSpace=wrap;html=1;fontSize=12;glass=0;strokeWidth=1;shadow=0;fillColor=#d5e8d4;strokeColor=#82b366;" parent="WIyWlLk6GJQsqaUBKTNV-1" vertex="1">
          <mxGeometry x="320" y="670" width="160" height="50" as="geometry" />
        </mxCell>
        <mxCell id="iBaxZ7XfmE4v1eV0UQCF-32" value="" style="rounded=0;html=1;jettySize=auto;orthogonalLoop=1;fontSize=11;endArrow=block;endFill=0;endSize=8;strokeWidth=1;shadow=0;labelBackgroundColor=none;edgeStyle=orthogonalEdgeStyle;" parent="WIyWlLk6GJQsqaUBKTNV-1" source="iBaxZ7XfmE4v1eV0UQCF-31" target="iBaxZ7XfmE4v1eV0UQCF-18" edge="1">
          <mxGeometry x="0.3333" y="20" relative="1" as="geometry">
            <mxPoint as="offset" />
            <mxPoint x="429.86" y="730" as="sourcePoint" />
            <mxPoint x="429.86" y="780" as="targetPoint" />
            <Array as="points">
              <mxPoint x="400" y="790" />
            </Array>
          </mxGeometry>
        </mxCell>
        <mxCell id="iBaxZ7XfmE4v1eV0UQCF-33" value="" style="rounded=0;html=1;jettySize=auto;orthogonalLoop=1;fontSize=11;endArrow=block;endFill=0;endSize=8;strokeWidth=1;shadow=0;labelBackgroundColor=none;edgeStyle=orthogonalEdgeStyle;" parent="WIyWlLk6GJQsqaUBKTNV-1" source="iBaxZ7XfmE4v1eV0UQCF-28" target="iBaxZ7XfmE4v1eV0UQCF-18" edge="1">
          <mxGeometry x="0.3333" y="20" relative="1" as="geometry">
            <mxPoint as="offset" />
            <mxPoint x="840" y="525" as="sourcePoint" />
            <mxPoint x="290" y="800" as="targetPoint" />
            <Array as="points">
              <mxPoint x="830" y="443" />
              <mxPoint x="830" y="790" />
            </Array>
          </mxGeometry>
        </mxCell>
        <mxCell id="FnrRYVqBn6flf1UeQhr2-1" value="No" style="rounded=0;html=1;jettySize=auto;orthogonalLoop=1;fontSize=11;endArrow=block;endFill=0;endSize=8;strokeWidth=1;shadow=0;labelBackgroundColor=none;edgeStyle=orthogonalEdgeStyle;" edge="1" parent="WIyWlLk6GJQsqaUBKTNV-1" target="iBaxZ7XfmE4v1eV0UQCF-26" source="WIyWlLk6GJQsqaUBKTNV-6">
          <mxGeometry x="0.4545" y="20" relative="1" as="geometry">
            <mxPoint as="offset" />
            <mxPoint x="240" y="353" as="sourcePoint" />
            <mxPoint x="240" y="383" as="targetPoint" />
          </mxGeometry>
        </mxCell>
        <mxCell id="FnrRYVqBn6flf1UeQhr2-4" value="Does Data &lt;br&gt;Exist In Index?" style="rhombus;whiteSpace=wrap;html=1;shadow=0;fontFamily=Helvetica;fontSize=12;align=center;strokeWidth=1;spacing=6;spacingTop=-4;fillColor=#d5e8d4;strokeColor=#82b366;" vertex="1" parent="WIyWlLk6GJQsqaUBKTNV-1">
          <mxGeometry x="165" y="530" width="110" height="100" as="geometry" />
        </mxCell>
        <mxCell id="FnrRYVqBn6flf1UeQhr2-5" value="Generate Answer Based On Data&lt;br&gt;(Azure Open AI)" style="rounded=1;whiteSpace=wrap;html=1;fontSize=12;glass=0;strokeWidth=1;shadow=0;fillColor=#d5e8d4;strokeColor=#82b366;" vertex="1" parent="WIyWlLk6GJQsqaUBKTNV-1">
          <mxGeometry x="540" y="662.5" width="190" height="65" as="geometry" />
        </mxCell>
        <mxCell id="FnrRYVqBn6flf1UeQhr2-6" value="Yes" style="edgeStyle=orthogonalEdgeStyle;rounded=0;html=1;jettySize=auto;orthogonalLoop=1;fontSize=11;endArrow=block;endFill=0;endSize=8;strokeWidth=1;shadow=0;labelBackgroundColor=none;" edge="1" parent="WIyWlLk6GJQsqaUBKTNV-1" source="FnrRYVqBn6flf1UeQhr2-4" target="FnrRYVqBn6flf1UeQhr2-5">
          <mxGeometry x="-0.8039" y="20" relative="1" as="geometry">
            <mxPoint as="offset" />
            <mxPoint x="637.5" y="537" as="sourcePoint" />
            <mxPoint x="717.5" y="537" as="targetPoint" />
          </mxGeometry>
        </mxCell>
        <mxCell id="FnrRYVqBn6flf1UeQhr2-7" value="" style="rounded=0;html=1;jettySize=auto;orthogonalLoop=1;fontSize=11;endArrow=block;endFill=0;endSize=8;strokeWidth=1;shadow=0;labelBackgroundColor=none;edgeStyle=orthogonalEdgeStyle;" edge="1" parent="WIyWlLk6GJQsqaUBKTNV-1" target="FnrRYVqBn6flf1UeQhr2-10" source="iBaxZ7XfmE4v1eV0UQCF-15">
          <mxGeometry x="0.3333" y="20" relative="1" as="geometry">
            <mxPoint as="offset" />
            <mxPoint x="778" y="395" as="sourcePoint" />
            <mxPoint x="775.5" y="527" as="targetPoint" />
            <Array as="points" />
          </mxGeometry>
        </mxCell>
        <mxCell id="FnrRYVqBn6flf1UeQhr2-10" value="Generate Answer Based On Invoice Extracted Data&lt;br&gt;(Azure Open AI)" style="rounded=1;whiteSpace=wrap;html=1;fontSize=12;glass=0;strokeWidth=1;shadow=0;fillColor=#dae8fc;strokeColor=#6c8ebf;" vertex="1" parent="WIyWlLk6GJQsqaUBKTNV-1">
          <mxGeometry x="887" y="757.5" width="190" height="65" as="geometry" />
        </mxCell>
        <mxCell id="FnrRYVqBn6flf1UeQhr2-11" value="" style="rounded=0;html=1;jettySize=auto;orthogonalLoop=1;fontSize=11;endArrow=block;endFill=0;endSize=8;strokeWidth=1;shadow=0;labelBackgroundColor=none;edgeStyle=orthogonalEdgeStyle;" edge="1" parent="WIyWlLk6GJQsqaUBKTNV-1" source="FnrRYVqBn6flf1UeQhr2-10" target="iBaxZ7XfmE4v1eV0UQCF-18">
          <mxGeometry x="0.3333" y="20" relative="1" as="geometry">
            <mxPoint as="offset" />
            <mxPoint x="700" y="810" as="sourcePoint" />
            <mxPoint x="700" y="904" as="targetPoint" />
            <Array as="points" />
          </mxGeometry>
        </mxCell>
      </root>
    </mxGraphModel>
  </diagram>
</mxfile>
